<svg xmlns="http://www.w3.org/2000/svg" xmlns:xlink="http://www.w3.org/1999/xlink" width="500" height="82" viewBox="0 0 500 82">
  <defs>
    <clipPath id="clip-path">
      <rect id="사각형_3006" data-name="사각형 3006" width="499.6" height="79.481" fill="none"/>
    </clipPath>
    <clipPath id="clip-logo_SVG">
      <rect width="500" height="82"/>
    </clipPath>
  </defs>
  <g id="logo_SVG" clip-path="url(#clip-logo_SVG)">
    <g id="그룹_10" data-name="그룹 10" transform="translate(0 1)">
      <g id="그룹_6" data-name="그룹 6" transform="translate(0 0)" clip-path="url(#clip-path)">
        <path id="패스_18" data-name="패스 18" d="M56.7,5.672a.839.839,0,0,1,.889-.889H66.3a.842.842,0,0,1,.893.889V29.514a.471.471,0,0,0,.531.535h23.04a.473.473,0,0,0,.535-.535V5.672a.839.839,0,0,1,.889-.889h8.72a.841.841,0,0,1,.889.889V64.386a.843.843,0,0,1-.889.889h-8.72a.841.841,0,0,1-.889-.889V40.012a.472.472,0,0,0-.535-.535H67.724a.471.471,0,0,0-.531.535V64.386a.844.844,0,0,1-.893.889H57.584a.841.841,0,0,1-.889-.889Z" transform="translate(56.854 4.796)" fill="#004994"/>
        <path id="패스_19" data-name="패스 19" d="M104.94,5.672a1.151,1.151,0,0,1,1.156-.889h8.185a1.154,1.154,0,0,1,1.158.889L135.9,64.386c.178.531,0,.889-.623.889h-8.716a1.072,1.072,0,0,1-1.158-.889l-4-11.744H98.626L94.62,64.386a1.07,1.07,0,0,1-1.156.889H84.836c-.625,0-.8-.358-.625-.889ZM118.195,43.3,110.19,19.818h-.268l-8.1,23.485Z" transform="translate(84.382 4.796)" fill="#004994"/>
        <path id="패스_20" data-name="패스 20" d="M114.907,5.672a.839.839,0,0,1,.889-.889h37.895a.84.84,0,0,1,.891.889v7.651a.84.84,0,0,1-.891.889H125.936a.471.471,0,0,0-.531.535V29.514a.471.471,0,0,0,.531.535h23.4a.841.841,0,0,1,.889.889v7.651a.842.842,0,0,1-.889.889h-23.4a.471.471,0,0,0-.531.535v15.3a.471.471,0,0,0,.531.535h27.755a.84.84,0,0,1,.891.889v7.651a.842.842,0,0,1-.891.889H115.8a.841.841,0,0,1-.889-.889Z" transform="translate(115.228 4.796)" fill="#004994"/>
        <path id="패스_21" data-name="패스 21" d="M139.645,58.738a.981.981,0,0,1-.178-1.336l5.518-6.4a.8.8,0,0,1,1.246-.088c3.913,3.112,9.7,6.4,16.455,6.4,7.206,0,11.388-3.647,11.388-8.718,0-4.358-2.67-7.2-11.029-8.362l-3.2-.447c-11.654-1.6-18.235-7.2-18.235-17.256,0-10.943,8.005-18.237,20.461-18.237,7.561,0,14.767,2.4,19.569,6.05a.8.8,0,0,1,.18,1.244l-4.27,6.585a.89.89,0,0,1-1.246.264c-4.895-3.2-9.431-4.715-14.5-4.715-6.137,0-9.517,3.381-9.517,8.1,0,4.184,2.936,7.03,11.12,8.185l3.2.445c11.654,1.6,18.059,7.116,18.059,17.524,0,10.765-7.741,18.77-22.774,18.77-8.9,0-17.526-3.557-22.241-8.005" transform="translate(139.663 4.306)" fill="#004994"/>
        <path id="패스_22" data-name="패스 22" d="M201.861,43.836V5.672a.839.839,0,0,1,.889-.889h8.716a.839.839,0,0,1,.889.889V44.016c0,14.054-9.515,22.239-22.325,22.239-12.724,0-22.243-8.185-22.243-22.239V5.672a.841.841,0,0,1,.891-.889H177.4a.839.839,0,0,1,.889.889V43.836c0,8.364,4.895,12.99,11.744,12.99,6.936,0,11.831-4.626,11.831-12.99" transform="translate(168.257 4.796)" fill="#004994"/>
        <path id="패스_23" data-name="패스 23" d="M197.36,5.672a.839.839,0,0,1,.889-.889h8.185a1.561,1.561,0,0,1,1.51.889l24.643,41.72h.357V5.672a.839.839,0,0,1,.889-.889h7.739a.841.841,0,0,1,.891.889V64.386a.844.844,0,0,1-.891.889h-8.093a1.57,1.57,0,0,1-1.514-.889l-24.73-41.634h-.354V64.386a.843.843,0,0,1-.891.889h-7.739a.841.841,0,0,1-.889-.889Z" transform="translate(197.912 4.796)" fill="#004994"/>
        <path id="패스_24" data-name="패스 24" d="M226.487,35.519c0-9.517.356-12.9,1.6-16.633C231.2,9.276,239.032,4.3,249.705,4.3c11.3,0,18.592,6.05,21.083,12.81a.985.985,0,0,1-.356,1.246l-7.47,3.291a.928.928,0,0,1-1.156-.443c-2.67-4.8-6.319-7.474-12.189-7.474-6.139,0-9.7,3.026-11.386,7.917-.713,2.225-1.069,5.249-1.069,13.877,0,8.54.356,11.654,1.069,13.879,1.69,4.891,5.247,7.917,11.386,7.917,5.335,0,9.874-2.67,11.474-7.563a24.971,24.971,0,0,0,.979-7.827.472.472,0,0,0-.533-.535h-9.964a.843.843,0,0,1-.891-.889V33.386a.843.843,0,0,1,.891-.891H271.59a.842.842,0,0,1,.889.891v5.247c0,4.981-.445,10.23-1.424,13.257-2.934,9.429-10.939,14.855-21.35,14.855-10.673,0-18.5-4.981-21.616-14.59-1.246-3.735-1.6-7.116-1.6-16.635" transform="translate(227.121 4.307)" fill="#004994"/>
        <path id="패스_25" data-name="패스 25" d="M79.481,30.873V20.541H0v10.32a250.5,250.5,0,0,1,79.481.012" transform="translate(0 20.598)" fill="#004994"/>
        <path id="패스_26" data-name="패스 26" d="M79.481,39.693V28.7A250.439,250.439,0,0,0,0,28.69V39.629c27.743-9.473,51.81-9.451,79.481.064" transform="translate(0 25.594)" fill="#004994"/>
        <path id="패스_27" data-name="패스 27" d="M79.481,37.837C51.768,27.793,27.785,27.771,0,37.771V49.089c28.105-15.876,51.392-15.87,79.481.02Z" transform="translate(0 30.372)" fill="#004994"/>
        <path id="패스_28" data-name="패스 28" d="M79.481,13.985V24.317H0V14a250.5,250.5,0,0,0,79.481-.012" transform="translate(0 14.024)" fill="#008bd2"/>
        <path id="패스_29" data-name="패스 29" d="M79.481,7.088V18.079A250.439,250.439,0,0,1,0,18.091V7.152c27.743,9.473,51.81,9.451,79.481-.064" transform="translate(0 7.108)" fill="#008bd2"/>
        <path id="패스_30" data-name="패스 30" d="M79.481,11.272C51.768,21.316,27.785,21.338,0,11.338V.02C28.105,15.9,51.392,15.89,79.481,0Z" transform="translate(0 0)" fill="#008bd2"/>
      </g>
    </g>
  </g>
</svg>
